<svg width="25" height="25" viewBox="0 0 25 25" fill="none" xmlns="http://www.w3.org/2000/svg">
<path d="M12.5001 0.0520411C5.59655 0.0520411 0 5.64859 0 12.5521C0 18.7438 4.50652 23.8715 10.4153 24.8645V15.16H7.39993V11.6677H10.4153V9.09267C10.4153 6.10487 12.2402 4.4767 14.9059 4.4767C16.1826 4.4767 17.2798 4.57183 17.5983 4.61373V7.73678L15.7494 7.73767C14.3 7.73767 14.0206 8.42628 14.0206 9.43712V11.6659H17.479L17.0279 15.1582H14.0206V24.948C20.2052 24.1952 25 18.9369 25 12.5485C25 5.64859 19.4035 0.0520411 12.5001 0.0520411Z" fill="white"/>
</svg>
